<?xml version="1.0" standalone="no"?>
<!DOCTYPE svg PUBLIC "-//W3C//DTD SVG 20010904//EN"
 "http://www.w3.org/TR/2001/REC-SVG-20010904/DTD/svg10.dtd">
<svg version="1.0" xmlns="http://www.w3.org/2000/svg"
 width="200.000000pt" height="89.000000pt" viewBox="0 0 200.000000 89.000000"
 preserveAspectRatio="xMidYMid meet">

<g transform="translate(0.000000,89.000000) scale(0.100000,-0.100000)"
fill="#000000" stroke="none">
<path d="M830 776 l0 -65 -37 15 c-93 39 -185 -26 -185 -131 0 -108 104 -178
195 -131 23 13 27 13 27 0 0 -9 11 -14 35 -14 l35 0 0 195 0 195 -35 0 -35 0
0 -64z m-30 -124 c29 -24 30 -86 2 -115 -47 -47 -122 -11 -122 57 0 65 70 98
120 58z"/>
<path d="M90 785 l0 -35 60 0 60 0 0 -103 c0 -106 -7 -127 -41 -127 -10 0 -31
11 -46 24 l-29 25 -19 -31 -18 -31 26 -23 c55 -47 143 -42 181 9 19 25 21 44
24 178 l3 149 -100 0 -101 0 0 -35z"/>
<path d="M383 720 c-47 -21 -50 -27 -29 -55 12 -16 17 -17 43 -6 42 17 97 11
101 -11 3 -15 -4 -18 -47 -18 -94 0 -143 -47 -121 -116 17 -49 48 -62 158 -62
l92 0 0 95 c0 116 -15 158 -64 178 -47 20 -82 19 -133 -5z m115 -167 c-8 -41
-98 -53 -98 -14 0 26 9 31 57 31 37 0 44 -3 41 -17z"/>
<path d="M919 718 c5 -13 30 -72 55 -132 51 -121 53 -128 30 -150 -12 -13 -20
-14 -36 -5 -18 9 -24 8 -35 -7 -19 -26 -12 -47 20 -62 30 -14 85 -3 106 22 12
14 141 330 141 345 0 6 -15 11 -34 11 -34 0 -35 -2 -65 -81 -17 -44 -31 -86
-31 -92 0 -22 -18 9 -50 91 l-32 82 -39 0 c-36 0 -38 -2 -30 -22z"/>
<path d="M1220 595 l0 -145 35 0 35 0 0 85 c0 78 2 88 25 110 29 30 56 32 78
7 13 -15 17 -39 17 -110 l0 -92 34 0 34 0 4 91 c4 81 7 94 27 110 28 23 54 24
75 3 12 -12 16 -37 16 -110 l0 -95 38 3 37 3 3 82 c4 109 -10 158 -51 184 -39
24 -97 20 -137 -9 l-27 -20 -21 21 c-25 24 -110 29 -136 8 -14 -11 -16 -11
-16 3 0 12 -9 16 -35 16 l-35 0 0 -145z"/>
<path d="M1670 736 c0 -2 25 -63 55 -136 45 -107 53 -136 44 -152 -8 -15 -18
-19 -40 -16 -25 4 -33 0 -45 -24 -15 -28 -14 -29 19 -43 39 -16 73 -11 104 18
17 15 153 329 153 353 0 3 -17 4 -37 2 -37 -3 -38 -4 -68 -85 -17 -45 -33 -84
-36 -87 -2 -3 -20 35 -39 85 l-35 89 -37 0 c-21 0 -38 -2 -38 -4z"/>
<path d="M357 263 c-4 -3 -7 -48 -7 -100 0 -75 3 -93 15 -93 11 0 15 17 17 76
l3 77 54 -77 c30 -42 60 -76 68 -76 10 0 13 23 13 100 0 60 -4 100 -10 100 -6
0 -10 -32 -10 -75 0 -41 -3 -75 -7 -74 -5 0 -32 34 -61 75 -52 72 -62 81 -75
67z"/>
<path d="M820 170 c0 -60 4 -100 10 -100 6 0 10 11 10 24 0 13 9 34 20 47 l20
24 20 -27 c45 -59 57 -71 68 -67 7 2 -6 26 -29 57 l-40 52 35 42 c55 64 33 59
-34 -7 l-60 -59 0 57 c0 31 -4 57 -10 57 -6 0 -10 -40 -10 -100z"/>
<path d="M593 213 c-25 -10 -12 -22 17 -17 18 4 36 1 45 -6 24 -20 17 -30 -20
-30 -46 0 -80 -32 -65 -61 15 -28 38 -34 71 -22 16 7 29 7 29 2 0 -5 5 -9 10
-9 17 0 12 116 -6 134 -15 15 -55 20 -81 9z m77 -86 c0 -20 -21 -37 -46 -37
-26 0 -38 14 -30 35 7 19 76 21 76 2z"/>
<path d="M1010 162 c0 -80 35 -111 91 -82 13 7 19 7 19 0 0 -5 7 -10 15 -10
12 0 15 15 15 75 0 60 -3 75 -15 75 -11 0 -15 -12 -15 -49 0 -32 -6 -55 -16
-65 -36 -37 -64 -10 -64 61 0 40 -4 53 -15 53 -12 0 -15 -13 -15 -58z"/>
<path d="M1200 145 c0 -85 15 -101 22 -23 5 48 18 69 52 81 6 2 8 8 4 12 -4 4
-19 0 -33 -9 -22 -14 -25 -15 -25 -1 0 8 -4 15 -10 15 -6 0 -10 -32 -10 -75z"/>
<path d="M1316 153 c38 -102 52 -107 74 -28 7 25 16 48 20 50 4 3 16 -19 27
-48 11 -28 26 -52 33 -52 7 0 24 30 38 67 14 37 28 66 32 63 3 -2 19 -34 34
-70 30 -69 26 -95 -15 -95 -11 0 -19 -5 -19 -11 0 -6 14 -9 32 -7 30 3 34 8
70 97 43 107 42 104 26 99 -6 -2 -22 -31 -34 -64 -21 -56 -23 -58 -32 -34 -36
92 -41 100 -66 100 -22 0 -27 -8 -42 -55 -10 -30 -21 -55 -24 -55 -3 0 -14 25
-24 55 -10 31 -23 55 -31 55 -7 0 -21 -23 -30 -52 -10 -29 -21 -57 -25 -61 -3
-4 -15 20 -25 53 -10 33 -24 60 -31 60 -10 0 -6 -19 12 -67z"/>
</g>
</svg>
